<svg width="200" height="200" viewBox="0 0 200 200" fill="none" xmlns="http://www.w3.org/2000/svg">
<rect width="200" height="200" rx="100" fill="#B94444"/>
<g opacity="0.7">
<path d="M43 90.0191C56.5654 82.9028 68.9098 75.8949 81.7992 70.0482C84.9251 68.6298 90.3816 70.0784 93.8056 71.9274C98.123 74.2596 101.265 75.4162 105.483 71.9956C110.505 67.924 115.761 68.2417 121.571 71.5124C132.855 77.8636 144.519 83.5594 157 90.0325C146.539 96.2271 135.656 98.603 124.616 96.716C107.671 93.82 91.0803 94.075 74.1568 96.7629C63.5876 98.4419 53.1117 96.2081 43 90.0202V90.0191Z" fill="black"/>
<path d="M43.7966 94.2047C81.5558 110.158 118.168 110.174 154.832 94.6443C150.7 110.587 125.472 129.695 106.193 131.718C81.9609 134.262 56.5746 119.411 43.7966 94.2047Z" fill="black"/>
</g>
</svg>
