<svg width="200" height="200" viewBox="0 0 200 200" fill="none" xmlns="http://www.w3.org/2000/svg">
<rect width="200" height="200" rx="100" fill="#44ABB9"/>
<path fill-rule="evenodd" clip-rule="evenodd" d="M111.096 102.493C115.48 98.1175 121.426 95.6596 127.625 95.6596C130.695 95.6596 133.734 96.263 136.57 97.4354C139.406 98.6079 141.983 100.326 144.154 102.493C146.324 104.659 148.046 107.231 149.221 110.061C150.395 112.892 151 115.926 151 118.989C151 122.053 150.395 125.087 149.221 127.917C148.046 130.748 146.324 133.32 144.154 135.486C141.983 137.652 139.406 139.371 136.57 140.543C133.734 141.716 130.695 142.319 127.625 142.319C121.426 142.319 115.48 139.861 111.096 135.486C106.713 131.111 104.25 125.177 104.25 118.989C104.25 112.802 106.713 106.868 111.096 102.493ZM127.625 104.143C123.68 104.143 119.896 105.707 117.107 108.491C114.317 111.276 112.75 115.052 112.75 118.989C112.75 122.927 114.317 126.703 117.107 129.487C119.896 132.271 123.68 133.836 127.625 133.836C129.578 133.836 131.513 133.452 133.317 132.705C135.122 131.959 136.762 130.866 138.143 129.487C139.524 128.109 140.62 126.472 141.368 124.671C142.115 122.87 142.5 120.939 142.5 118.989C142.5 117.04 142.115 115.109 141.368 113.308C140.62 111.507 139.524 109.87 138.143 108.491C136.762 107.113 135.122 106.019 133.317 105.273C131.513 104.527 129.578 104.143 127.625 104.143ZM55.5352 104.303C59.7196 100.127 65.3949 97.7805 71.3125 97.7805C77.2301 97.7805 82.9054 100.127 87.0898 104.303C91.2742 108.479 93.625 114.144 93.625 120.05C93.625 125.956 91.2742 131.62 87.0898 135.797C82.9054 139.973 77.2301 142.319 71.3125 142.319C65.3949 142.319 59.7196 139.973 55.5352 135.797C51.3508 131.62 49 125.956 49 120.05C49 114.144 51.3508 108.479 55.5352 104.303ZM71.3125 106.264C67.6492 106.264 64.1359 107.716 61.5456 110.302C58.9552 112.887 57.5 116.394 57.5 120.05C57.5 123.706 58.9552 127.212 61.5456 129.798C64.1359 132.383 67.6492 133.836 71.3125 133.836C74.9758 133.836 78.4891 132.383 81.0794 129.798C83.6698 127.212 85.125 123.706 85.125 120.05C85.125 116.394 83.6698 112.887 81.0794 110.302C78.4891 107.716 74.9758 106.264 71.3125 106.264Z" fill="black" fill-opacity="0.7"/>
<path fill-rule="evenodd" clip-rule="evenodd" d="M84.8086 61.9512C84.8086 59.5927 86.7074 57.6808 89.0497 57.6808H108.135C109.96 57.6808 111.581 58.8568 112.158 60.6004L131.249 118.25C131.99 120.487 130.789 122.906 128.567 123.652C126.345 124.398 123.944 123.189 123.203 120.952L105.078 66.2215H89.0497C86.7074 66.2215 84.8086 64.3096 84.8086 61.9512Z" fill="black" fill-opacity="0.7"/>
<path fill-rule="evenodd" clip-rule="evenodd" d="M139.556 66.6265C141.745 67.4414 142.865 69.8911 142.056 72.0982L138.156 82.7481C137.543 84.4214 135.961 85.5326 134.191 85.5326H120.486C120.357 86.6147 119.82 87.6476 118.903 88.375L75.3212 122.959C73.4873 124.415 70.8302 124.096 69.3864 122.247C67.9427 120.399 68.259 117.72 70.0929 116.265L83.527 105.604L77.9193 87.6072H66.2474C63.9133 87.6072 62.0212 85.7 62.0212 83.3473C62.0212 80.9946 63.9133 79.0873 66.2474 79.0873H81.0389C83.0653 79.0873 84.7586 80.525 85.1698 82.4436L90.63 99.9679L112.325 82.7521C112.155 82.2912 112.063 81.7928 112.063 81.2727C112.063 78.92 113.955 77.0127 116.289 77.0127H131.246L134.127 69.1474C134.936 66.9403 137.366 65.8117 139.556 66.6265Z" fill="black" fill-opacity="0.7"/>
</svg>
