<svg width="200" height="200" viewBox="0 0 200 200" fill="none" xmlns="http://www.w3.org/2000/svg">
<rect width="200" height="200" rx="100" fill="#44ABB9"/>
<path d="M121.061 52.0353H78.9401C73.3448 52.0353 70.5494 52.0353 68.2983 53.426C66.0518 54.8121 64.8006 57.3144 62.2983 62.319L55.7728 78.8259C54.2612 82.6398 52.9449 87.1328 55.4844 90.356C56.6813 91.8752 58.3219 92.9835 60.178 93.5268C62.0341 94.0702 64.0134 94.0215 65.8405 93.3875C67.6677 92.7536 69.2518 91.5659 70.3725 89.9897C71.4933 88.4136 72.0948 86.5273 72.0936 84.5933C72.0936 87.0604 73.0737 89.4265 74.8182 91.171C76.5627 92.9155 78.9288 93.8955 81.3959 93.8955C83.863 93.8955 86.2291 92.9155 87.9736 91.171C89.7181 89.4265 90.6981 87.0604 90.6981 84.5933C90.6981 87.0604 91.6782 89.4265 93.4227 91.171C95.1672 92.9155 97.5333 93.8955 100 93.8955C102.468 93.8955 104.834 92.9155 106.578 91.171C108.323 89.4265 109.303 87.0604 109.303 84.5933C109.303 87.0604 110.283 89.4265 112.027 91.171C113.772 92.9155 116.138 93.8955 118.605 93.8955C121.072 93.8955 123.438 92.9155 125.183 91.171C126.927 89.4265 127.907 87.0604 127.907 84.5933C127.907 86.5269 128.509 88.4125 129.63 89.9879C130.751 91.5633 132.336 92.7503 134.162 93.3836C135.989 94.017 137.968 94.0653 139.824 93.5219C141.68 92.9784 143.32 91.8702 144.516 90.3514C147.056 87.1281 145.735 82.6351 144.228 78.8212L137.698 62.319C135.196 57.3144 133.949 54.8121 131.698 53.426C129.451 52.0353 126.651 52.0353 121.061 52.0353Z" fill="black" fill-opacity="0.7"/>
<path fill-rule="evenodd" clip-rule="evenodd" d="M137.209 141.57H146.512C147.437 141.57 148.324 141.937 148.978 142.591C149.633 143.246 150 144.133 150 145.058C150 145.983 149.633 146.87 148.978 147.525C148.324 148.179 147.437 148.546 146.512 148.546H53.4891C52.5639 148.546 51.6766 148.179 51.0224 147.525C50.3683 146.87 50.0007 145.983 50.0007 145.058C50.0007 144.133 50.3683 143.246 51.0224 142.591C51.6766 141.937 52.5639 141.57 53.4891 141.57H62.7913V100.872C66.2518 100.872 69.4564 99.7931 72.0936 97.9559C74.8215 99.8598 78.0693 100.878 81.3959 100.872C84.8563 100.872 88.061 99.7931 90.6981 97.9559C93.4261 99.8598 96.6738 100.878 100 100.872C103.461 100.872 106.665 99.7931 109.303 97.9559C112.031 99.8598 115.278 100.878 118.605 100.872C122.065 100.872 125.27 99.7931 127.907 97.9559C130.635 99.8598 133.883 100.878 137.209 100.872V141.57ZM88.3726 141.57H111.628V128.779C111.628 124.43 111.628 122.258 110.693 120.64C110.082 119.577 109.201 118.695 108.14 118.081C106.521 117.151 104.349 117.151 100 117.151C95.6516 117.151 93.4795 117.151 91.8609 118.081C90.7998 118.695 89.9191 119.577 89.3075 120.64C88.3726 122.258 88.3726 124.43 88.3726 128.779V141.57Z" fill="black" fill-opacity="0.7"/>
</svg>
