<svg width="28" height="28" viewBox="0 0 28 28" fill="none" xmlns="http://www.w3.org/2000/svg">
<path fill-rule="evenodd" clip-rule="evenodd" d="M14.0615 0.5C14.89 0.5 15.5615 1.17157 15.5615 2L15.5615 5.01539C15.5615 5.84381 14.89 6.51539 14.0615 6.51539C13.2331 6.51539 12.5615 5.84381 12.5615 5.01539L12.5615 2C12.5615 1.17157 13.2331 0.5 14.0615 0.5Z" fill="#808080"/>
<path fill-rule="evenodd" clip-rule="evenodd" d="M21.6077 14.0615C21.6077 13.2331 22.2792 12.5615 23.1077 12.5615H26.1231C26.9515 12.5615 27.6231 13.2331 27.6231 14.0615C27.6231 14.89 26.9515 15.5615 26.1231 15.5615H23.1077C22.2792 15.5615 21.6077 14.89 21.6077 14.0615Z" fill="#808080"/>
<path fill-rule="evenodd" clip-rule="evenodd" d="M14.0615 21.6077C14.89 21.6077 15.5615 22.2792 15.5615 23.1077L15.5615 26.1231C15.5615 26.9515 14.89 27.6231 14.0615 27.6231C13.2331 27.6231 12.5615 26.9515 12.5615 26.1231L12.5615 23.1077C12.5615 22.2792 13.2331 21.6077 14.0615 21.6077Z" fill="#808080"/>
<path fill-rule="evenodd" clip-rule="evenodd" d="M0.5 14.0615C0.5 13.2331 1.17157 12.5615 2 12.5615L5.01539 12.5615C5.84381 12.5615 6.51539 13.2331 6.51539 14.0615C6.51539 14.89 5.84381 15.5615 5.01539 15.5615L2 15.5615C1.17157 15.5615 0.5 14.89 0.5 14.0615Z" fill="#808080"/>
<circle cx="14" cy="14" r="4" fill="#808080"/>
<path fill-rule="evenodd" clip-rule="evenodd" d="M14.0615 6.51538C9.89391 6.51538 6.51538 9.89391 6.51538 14.0615C6.51538 18.2292 9.89391 21.6077 14.0615 21.6077C18.2292 21.6077 21.6077 18.2292 21.6077 14.0615C21.6077 9.89391 18.2292 6.51538 14.0615 6.51538ZM3.51538 14.0615C3.51538 8.23706 8.23706 3.51538 14.0615 3.51538C19.886 3.51538 24.6077 8.23706 24.6077 14.0615C24.6077 19.886 19.886 24.6077 14.0615 24.6077C8.23706 24.6077 3.51538 19.886 3.51538 14.0615Z" fill="#808080"/>
</svg>
